<?xml version="1.0" encoding="UTF-8"?>
<svg version="1.1" xmlns="http://www.w3.org/2000/svg" width="712" height="208">
<path d="M0 0 C234.96 0 469.92 0 712 0 C712 68.64 712 137.28 712 208 C477.04 208 242.08 208 0 208 C0 139.36 0 70.72 0 0 Z " fill="#FDFDFD" transform="translate(0,0)"/>
<path d="M0 0 C1.03498627 -0.0049649 2.06997253 -0.00992981 3.13632202 -0.01504517 C6.55231397 -0.02962072 9.96825944 -0.03646187 13.38427734 -0.04199219 C15.76834107 -0.04774833 18.15240479 -0.053506 20.53646851 -0.05926514 C25.53473119 -0.06976266 30.53297785 -0.0756132 35.53125 -0.07910156 C41.91297945 -0.08457735 48.2944946 -0.10859135 54.676157 -0.13707352 C59.60233158 -0.15576703 64.52845528 -0.16090912 69.45466232 -0.16243744 C71.80601546 -0.16545037 74.15736799 -0.17343257 76.50868607 -0.18662262 C100.10788151 -0.30953468 100.10788151 -0.30953468 109.59521484 3.16113281 C110.73216797 3.57492188 111.86912109 3.98871094 113.04052734 4.41503906 C123.81025722 9.67430949 131.58699685 17.24526176 136.59521484 28.16113281 C137.17271484 29.33675781 137.75021484 30.51238281 138.34521484 31.72363281 C140.92798673 38.82625549 140.74758447 46.23103122 140.75634766 53.70117188 C140.76131256 54.72669662 140.76627747 55.75222137 140.77139282 56.80882263 C140.78592651 60.18147467 140.79280149 63.55407968 140.79833984 66.92675781 C140.80258091 68.66401249 140.80258091 68.66401249 140.80690765 70.43636322 C140.82186424 76.56451137 140.83111618 82.69263619 140.83544922 88.82080078 C140.84093071 95.12624544 140.86496237 101.43147383 140.89342117 107.73685074 C140.91211302 112.60811982 140.91725662 117.47933744 140.9187851 122.35063934 C140.921797 124.67408176 140.92977566 126.99752358 140.94297028 129.32093048 C141.04148869 148.00075647 140.45781878 163.77614445 127.22021484 178.34863281 C118.94275804 186.23552468 107.34215485 192.24756114 95.78477478 192.30830383 C94.37427856 192.31903679 94.37427856 192.31903679 92.93528748 192.32998657 C91.91548294 192.33267548 90.89567841 192.33536438 89.8449707 192.33813477 C88.76136261 192.34470596 87.67775452 192.35127716 86.56130981 192.35804749 C82.97755865 192.37774582 79.39384938 192.38943673 75.81005859 192.39941406 C74.58294222 192.40348959 73.35582584 192.40756512 72.09152412 192.41176414 C66.263074 192.43046485 60.43464022 192.4450321 54.60616583 192.45337611 C48.57220595 192.46215973 42.53849848 192.48140959 36.50463867 192.51782227 C30.01492539 192.5563556 23.52543945 192.57507346 17.03561592 192.57958031 C14.56981723 192.58443423 12.10402178 192.59601385 9.6382885 192.6146183 C6.17566809 192.63911628 2.71390227 192.63802461 -0.7487793 192.63110352 C-2.25723167 192.6503186 -2.25723167 192.6503186 -3.79615784 192.66992188 C-17.43474682 192.57127916 -28.10292755 187.184027 -38.02978516 178.16113281 C-48.50498472 167.30068073 -51.70130116 153.79321393 -51.71118164 139.17211914 C-51.71950516 138.11064667 -51.72782867 137.04917419 -51.73640442 135.95553589 C-51.76037627 132.4680406 -51.76926132 128.98073285 -51.77587891 125.49316406 C-51.78485558 123.05091805 -51.7939776 120.60867257 -51.80323792 118.16642761 C-51.81969614 113.05323963 -51.82742216 107.94011687 -51.83032227 102.8269043 C-51.83569989 96.30516119 -51.87336928 89.78403923 -51.91906643 83.2624712 C-51.94894741 78.21868197 -51.95604824 73.17504028 -51.95704842 68.13117027 C-51.96122943 65.7284225 -51.97357752 63.32567342 -51.99456596 60.92301369 C-52.12585872 44.59276456 -52.0536693 29.85896861 -40.40478516 17.16113281 C-39.52693359 16.14792969 -39.52693359 16.14792969 -38.63134766 15.11425781 C-28.03406775 3.60863963 -15.11574392 0.01742965 0 0 Z " fill="#252525" transform="translate(56.40478515625,6.8388671875)"/>
<path d="M0 0 C8.78272313 5.68654499 14.74978171 12.34152671 17.84375 22.421875 C19.69785923 31.94942637 17.8113802 41.27350438 13.05078125 49.63671875 C7.10003183 58.34341996 -0.64111505 62.7424064 -10.76171875 65.44921875 C-20.31775805 66.91937864 -29.20079475 64.17768488 -37.07421875 58.69921875 C-43.85471642 53.1692227 -48.72963737 46.06148555 -50.09545898 37.31103516 C-50.91093697 26.96604759 -50.13799039 18.02963367 -43.76171875 9.44921875 C-41.01506889 6.33223408 -38.16184405 3.83045129 -34.76171875 1.44921875 C-34.11976563 0.99546875 -33.4778125 0.54171875 -32.81640625 0.07421875 C-23.95280331 -4.93110997 -8.99622143 -4.4281919 0 0 Z " fill="#161616" transform="translate(298.76171875,26.55078125)"/>
<path d="M0 0 C5.94099776 4.88482038 11.48741151 10.46844939 12.8125 18.3125 C13.76064757 30.24730753 13.32585073 40.04619291 5.5 49.6875 C0.42619579 55.06486514 -5.96875372 58.88356195 -13.46875 59.5 C-23.61898552 59.7506231 -32.11384943 57.73846678 -40.1875 51.3125 C-47.5939152 43.03474184 -49.85310132 33.73184377 -49.60546875 22.82421875 C-48.67532053 15.00923507 -45.3208411 8.30475438 -39.1875 3.3125 C-38.25550781 2.54292969 -38.25550781 2.54292969 -37.3046875 1.7578125 C-26.02121338 -7.20890268 -12.49807663 -6.6166288 0 0 Z " fill="#F9F9F9" transform="translate(95.1875,74.6875)"/>
<path d="M0 0 C3.63 0 7.26 0 11 0 C11 23.43 11 46.86 11 71 C7.37 71 3.74 71 0 71 C-0.495 67.535 -0.495 67.535 -1 64 C-1.680625 64.763125 -2.36125 65.52625 -3.0625 66.3125 C-8.74558011 71.51191371 -13.74783307 72.57259329 -21.28515625 72.35546875 C-27.42698962 71.55128625 -32.54893111 68.20378729 -37 64 C-43.48914543 55.2860047 -44.23452828 46.54408581 -43 36 C-40.59707435 27.41812267 -35.23633152 22.3979235 -27.6875 18.125 C-20.14038702 15.82249096 -14.08488058 16.42407042 -7.0078125 19.83203125 C-5 21 -5 21 -1 24 C-0.67 16.08 -0.34 8.16 0 0 Z " fill="#161616" transform="translate(696,20)"/>
<path d="M0 0 C3.63 0 7.26 0 11 0 C11.33 7.92 11.66 15.84 12 24 C14.97 22.02 17.94 20.04 21 18 C29.33034898 15.91741275 35.51297272 16.76756742 43 21 C48.54807915 24.69871944 51.92110772 29.70139871 54 36 C55.19674347 46.50602681 54.46270612 55.25553506 48 64 C42.63664483 69.35290028 36.82235718 72.27493634 29.1875 72.375 C22.79806949 72.27270616 17.94771716 70.81342481 13.28515625 66.36328125 C12.86105469 65.91339844 12.43695313 65.46351562 12 65 C11.67 66.98 11.34 68.96 11 71 C7.37 71 3.74 71 0 71 C0 47.57 0 24.14 0 0 Z " fill="#181818" transform="translate(417,20)"/>
<path d="M0 0 C8.25259933 -0.35632985 14.44572148 1.52616927 20.82421875 6.83984375 C27.29976565 13.12293559 29.37972008 17.92795981 29.57421875 27.02734375 C29.48467315 35.20804139 27.606738 41.04151739 22.21484375 47.20703125 C16.16049469 53.04342375 9.82659916 55.21874727 1.51171875 55.58984375 C-5.96860439 55.36983425 -12.67755252 52.46307248 -17.98828125 47.15234375 C-24.31274958 38.29449464 -24.97739526 29.80373369 -23.98828125 19.15234375 C-21.87709339 11.15507233 -15.73118377 6.21982216 -8.890625 2.15625 C-5.87923609 0.56707762 -3.34796049 0.2565235 0 0 Z " fill="#161616" transform="translate(499.98828125,36.84765625)"/>
<path d="M0 0 C6.92921326 4.00514704 10.86217258 8.0480429 13.06640625 15.83203125 C14.04760481 25.12759659 13.68505394 33.1141086 8.06640625 40.83203125 C5.62890625 43.26953125 5.62890625 43.26953125 3.06640625 44.83203125 C2.24140625 45.40953125 1.41640625 45.98703125 0.56640625 46.58203125 C-5.87324035 48.88190504 -12.96476154 48.83931361 -19.43359375 46.64453125 C-25.1985995 42.46490208 -29.67490666 37.6268368 -31.93359375 30.83203125 C-32.70218871 22.85115567 -33.28228383 14.33960418 -27.93359375 7.83203125 C-20.03911364 -0.28892984 -11.35898923 -4.52242048 0 0 Z " fill="#FBFBFB" transform="translate(291.93359375,34.16796875)"/>
<path d="M0 0 C4.42909402 3.18760554 6.71588401 5.83128337 7.875 11.359375 C7.936875 12.390625 7.99875 13.421875 8.0625 14.484375 C4.02360406 14.77014594 0.09240526 14.93632699 -3.9375 14.484375 C-6.5 12.046875 -6.5 12.046875 -7.9375 9.484375 C-12.74573593 7.88162969 -17.83603222 7.51052408 -22.5 9.671875 C-24.10234509 11.43949223 -24.10234509 11.43949223 -24.5625 13.921875 C-24.15111978 16.73189868 -24.15111978 16.73189868 -21.421875 18.5234375 C-17.44592984 20.76102098 -13.99428764 21.58227621 -9.5625 22.421875 C-2.02523388 24.02916918 4.30119709 25.65418064 9 32.171875 C9.5259375 33.3165625 9.5259375 33.3165625 10.0625 34.484375 C10.3925 35.144375 10.7225 35.804375 11.0625 36.484375 C11.61011772 42.83674058 10.72326107 47.20290547 7.0625 52.484375 C0.8698799 58.6769951 -4.31686254 60.64930332 -12.875 60.859375 C-21.4631846 60.64103132 -27.11398769 58.94801421 -33.4609375 53.09375 C-37.22843884 48.98737288 -37.9375 46.00728626 -37.9375 40.484375 C-33.6475 40.484375 -29.3575 40.484375 -24.9375 40.484375 C-24.525 41.433125 -24.1125 42.381875 -23.6875 43.359375 C-21.82817668 46.67959521 -21.3330284 47.19974347 -17.9375 48.484375 C-12.83198 49.27303256 -9.10368222 49.26182981 -4.75 46.359375 C-2.67616242 43.60063722 -2.67616242 43.60063722 -2.8125 40.296875 C-3.63219689 37.35920719 -3.63219689 37.35920719 -5.98828125 36.421875 C-8.98176708 35.47030334 -11.9453483 34.7811925 -15.01708984 34.14086914 C-23.19494192 32.42321619 -30.30154767 30.82406004 -35.875 24.171875 C-38.37945069 17.83708795 -38.40917773 12.83016576 -36.01171875 6.52734375 C-33.57971395 1.90211281 -28.99104544 -1.15680934 -24.17578125 -3.00390625 C-15.73159361 -4.93442733 -7.50669772 -4.39536906 0 0 Z " fill="#F7F7F7" transform="translate(149.9375,73.515625)"/>
<path d="M0 0 C5.39382978 3.91188867 8.47464075 8.25496124 10.93359375 14.40234375 C10.93359375 18.69234375 10.93359375 22.98234375 10.93359375 27.40234375 C-2.92640625 27.40234375 -16.78640625 27.40234375 -31.06640625 27.40234375 C-27.53697756 37.30870906 -27.53697756 37.30870906 -20.06640625 42.40234375 C-11.9408546 43.23136509 -11.9408546 43.23136509 -4.44140625 40.65234375 C-1.76916098 38.37742498 -1.76916098 38.37742498 -0.06640625 34.40234375 C3.23359375 34.40234375 6.53359375 34.40234375 9.93359375 34.40234375 C8.44024153 40.10423406 5.99665442 44.48412484 0.96875 47.6328125 C-6.53070128 51.50124454 -14.49295406 53.13092168 -22.76171875 50.56640625 C-29.6698675 47.41865651 -34.96118954 42.99622737 -38.16015625 36.015625 C-40.911666 27.90121892 -41.22340158 19.63722627 -38.16796875 11.5703125 C-35.21617482 5.76093083 -30.59537242 0.66158044 -24.5625 -1.97265625 C-16.61497161 -3.96264771 -7.33859242 -3.89819371 0 0 Z " fill="#161616" transform="translate(473.06640625,127.59765625)"/>
<path d="M0 0 C2.97 0 5.94 0 9 0 C9.33 1.98 9.66 3.96 10 6 C10.94875 5.195625 11.8975 4.39125 12.875 3.5625 C16.91209654 0.13974424 19.38755445 -0.18212094 24.75 -0.25 C25.96171875 -0.27578125 27.1734375 -0.3015625 28.421875 -0.328125 C35.11841669 0.28596834 38.41107817 3.41107817 43 8 C46.19424068 8.34880834 46.19424068 8.34880834 48.375 5.6875 C49.24125 4.800625 50.1075 3.91375 51 3 C56.86271623 -1.29727891 63.01546729 -0.69529285 70 0 C75.69270951 1.48505465 78.90490777 4.46882572 82.08984375 9.31640625 C84.45295626 13.68765728 84.12734619 18.00601913 84.09765625 22.82421875 C84.0962413 23.68561966 84.09482635 24.54702057 84.09336853 25.43452454 C84.0877714 28.18555169 84.07521946 30.93649744 84.0625 33.6875 C84.05748463 35.5527332 84.05292179 37.41796767 84.04882812 39.28320312 C84.03780292 43.85550011 84.02054027 48.42773625 84 53 C81.36 53 78.72 53 76 53 C75.98541748 51.97116699 75.97083496 50.94233398 75.95581055 49.88232422 C75.89761343 46.04653053 75.82038297 42.21131078 75.73754883 38.37597656 C75.70439982 36.71949616 75.67633691 35.06290554 75.65356445 33.40625 C75.61983268 31.01775366 75.56751041 28.63025829 75.51171875 26.2421875 C75.50532883 25.50757294 75.4989389 24.77295837 75.49235535 24.01608276 C75.35898146 19.29761256 74.46666654 16.02302917 72 12 C68.06837771 8.4369673 64.35807809 7.63504558 59.0625 7.72265625 C55.57495927 8.1916248 53.5958851 9.70596201 51 12 C48.07841073 16.70262078 47.53541693 20.8232563 47.48828125 26.2421875 C47.47033005 27.01055939 47.45237885 27.77893127 47.43388367 28.57058716 C47.38005042 31.00533695 47.34597308 33.4398938 47.3125 35.875 C47.27930295 37.53388086 47.24481109 39.19273635 47.20898438 40.8515625 C47.12434009 44.90090182 47.05740143 48.95018661 47 53 C44.03 53 41.06 53 38 53 C37.98541748 51.97116699 37.97083496 50.94233398 37.95581055 49.88232422 C37.89761343 46.04653053 37.82038297 42.21131078 37.73754883 38.37597656 C37.70439982 36.71949616 37.67633691 35.06290554 37.65356445 33.40625 C37.61983268 31.01775366 37.56751041 28.63025829 37.51171875 26.2421875 C37.50532883 25.50757294 37.4989389 24.77295837 37.49235535 24.01608276 C37.35889151 19.29443047 36.48858116 16.01523356 34 12 C29.89736682 8.28809379 26.55914192 7.35064795 21.1796875 7.61328125 C16.78073051 8.39374136 14.03401115 10.65570816 11.36791992 14.12182617 C9.5879707 17.86693083 9.52239172 21.2974696 9.48828125 25.36328125 C9.47033005 26.15526413 9.45237885 26.94724701 9.43388367 27.76322937 C9.37993162 30.27959962 9.34593437 32.79578185 9.3125 35.3125 C9.27931349 37.02411462 9.24482259 38.73570448 9.20898438 40.44726562 C9.12421418 44.63137442 9.05733157 48.81542893 9 53 C6.03 53 3.06 53 0 53 C0 35.51 0 18.02 0 0 Z " fill="#191919" transform="translate(493,125)"/>
<path d="M0 0 C3.63 0 7.26 0 11 0 C11.01458252 0.99854004 11.02916504 1.99708008 11.04418945 3.02587891 C11.10240068 6.74986606 11.17963077 10.47326292 11.26245117 14.19677734 C11.29559363 15.8047524 11.32365854 17.41284081 11.34643555 19.02099609 C11.38017967 21.34000705 11.43250194 23.65798931 11.48828125 25.9765625 C11.49467117 26.68930328 11.5010611 27.40204407 11.50764465 28.13638306 C11.66845899 33.66297976 12.88100504 37.92057133 16.8828125 41.84765625 C20.75854275 43.95714043 24.72227283 43.60724834 29 43 C32.43541574 41.34363884 34.34806939 40.23951299 36.13037109 36.85083008 C37.22872168 33.25020126 37.35402567 29.80547898 37.4140625 26.07421875 C37.43342865 25.32662796 37.4527948 24.57903717 37.4727478 23.80879211 C37.53223918 21.43514194 37.57880592 19.06144246 37.625 16.6875 C37.66320789 15.07224518 37.70226125 13.45701013 37.7421875 11.84179688 C37.8379153 7.8946929 37.92205767 3.94749361 38 0 C41.63 0 45.26 0 49 0 C49 17.49 49 34.98 49 53 C45.37 53 41.74 53 38 53 C37.67 51.35 37.34 49.7 37 48 C35.948125 48.928125 35.948125 48.928125 34.875 49.875 C29.6709413 53.72147817 24.40481065 54.78107447 18 54 C12.31946403 52.56149089 7.04437772 50.28758039 3.84375 45.140625 C0.5078387 38.80239353 -0.14894933 33.20876108 -0.09765625 26.07421875 C-0.0962413 25.32662796 -0.09482635 24.57903717 -0.09336853 23.80879211 C-0.08779764 21.43498635 -0.0752506 19.06127697 -0.0625 16.6875 C-0.05748123 15.07226699 -0.05291899 13.4570325 -0.04882812 11.84179688 C-0.03783775 7.89449445 -0.02059332 3.94726353 0 0 Z " fill="#181818" transform="translate(324,38)"/>
<path d="M0 0 C4.38420027 3.37566751 7.3299343 6.6791751 9 12 C9.26691228 15.00916275 9.23298213 18.00061335 9.1953125 21.01953125 C9.1924826 21.87810226 9.18965271 22.73667328 9.18673706 23.6212616 C9.1755807 26.35181875 9.15048459 29.0820427 9.125 31.8125 C9.11496432 33.66861504 9.1058395 35.52473524 9.09765625 37.38085938 C9.07565626 41.92070046 9.04115781 46.46029381 9 51 C5.37 51 1.74 51 -2 51 C-2.01458252 49.93563721 -2.02916504 48.87127441 -2.04418945 47.7746582 C-2.1022978 43.81403531 -2.17952945 39.85397352 -2.26245117 35.89379883 C-2.29564169 34.18197762 -2.32369189 32.47004852 -2.34643555 30.75805664 C-2.38009032 28.29266521 -2.43240974 25.82825719 -2.48828125 23.36328125 C-2.49467117 22.60163162 -2.5010611 21.83998199 -2.50764465 21.05525208 C-2.63149273 16.54804546 -3.2288475 13.59588503 -6 10 C-10.21788426 7.12098771 -15.09084328 7.2191735 -20 8 C-23.12177233 9.68287927 -25.39137035 11.7827407 -27 15 C-27.15676775 17.69655446 -27.25836315 20.37129977 -27.31640625 23.0703125 C-27.33718735 23.86654022 -27.35796844 24.66276794 -27.37937927 25.48312378 C-27.44484149 28.03032685 -27.50374415 30.57763425 -27.5625 33.125 C-27.6056884 34.85027127 -27.64930279 36.57553193 -27.69335938 38.30078125 C-27.80051945 42.53374685 -27.90179623 46.76681753 -28 51 C-31.63 51 -35.26 51 -39 51 C-39 33.51 -39 16.02 -39 -2 C-35.37 -2 -31.74 -2 -28 -2 C-27.67 -0.35 -27.34 1.3 -27 3 C-26.278125 2.38125 -25.55625 1.7625 -24.8125 1.125 C-17.17477781 -4.64572343 -8.34222444 -4.26081356 0 0 Z " fill="#191919" transform="translate(636,40)"/>
<path d="M0 0 C3.63 0 7.26 0 11 0 C11.01981934 0.99330322 11.03963867 1.98660645 11.06005859 3.01000977 C11.13654883 6.72086494 11.22519658 10.43135003 11.31738281 14.1418457 C11.35549419 15.74300796 11.39037713 17.34425063 11.421875 18.94555664 C11.46791611 21.25696414 11.52584208 23.56782644 11.5859375 25.87890625 C11.59748871 26.58648575 11.60903992 27.29406525 11.62094116 28.02308655 C11.75794734 32.71306547 12.43025612 36.61354218 14 41 C18.04907175 43.82208031 23.23804511 43.40693069 28 43 C31.30213483 42.21035906 32.52267405 41.61403757 34.60083008 38.94067383 C36.39760919 35.16433386 36.4773215 31.73671414 36.51171875 27.63671875 C36.52966995 26.84473587 36.54762115 26.05275299 36.56611633 25.23677063 C36.62006838 22.72040038 36.65406563 20.20421815 36.6875 17.6875 C36.72068651 15.97588538 36.75517741 14.26429552 36.79101562 12.55273438 C36.87578582 8.36862558 36.94266843 4.18457107 37 0 C40.63 0 44.26 0 48 0 C48 17.49 48 34.98 48 53 C44.37 53 40.74 53 37 53 C36.505 51.02 36.505 51.02 36 49 C35.3709375 49.3609375 34.741875 49.721875 34.09375 50.09375 C27.6275505 53.59952081 23.27929422 55.30982489 15.9375 53.48828125 C9.85279243 51.4946176 4.92756196 48.27470291 1.84375 42.51171875 C-1.4366 34.84308596 -0.41415633 26.10582627 -0.25 17.9375 C-0.22990621 16.19598406 -0.21166053 14.45444576 -0.1953125 12.71289062 C-0.15153994 8.47470223 -0.08267248 4.23760079 0 0 Z " fill="#171717" transform="translate(537,38)"/>
<path d="M0 0 C3.67450832 3.08449581 5.68646124 5.76824059 6.875 10.4375 C6.91625 11.283125 6.9575 12.12875 7 13 C3.62205716 13.28519217 0.36768532 13.44829577 -3 13 C-4.8125 10.6875 -4.8125 10.6875 -6 8 C-9.87962898 4.59062908 -13.66742952 4.5554748 -18.62109375 4.703125 C-21.6875179 5.08579862 -23.63792881 6.01890804 -26 8 C-27.57898053 11.15796107 -27.81928171 14.60670636 -27 18 C-23.02767116 23.30187628 -18.13520531 24.68274781 -12.0625 26.5625 C1.47835781 30.8317829 1.47835781 30.8317829 6.4375 37.0625 C8.9255058 41.89277068 8.21094467 46.86124762 7 52 C4.39896584 57.10917425 0.96553606 60.51723197 -4.171875 63.0859375 C-10.99465041 65.29108867 -21.13269865 65.38870177 -27.6875 62.375 C-31.78832804 59.83466405 -34.84006289 56.31987422 -37 52 C-37.039992 50.00039988 -37.04346799 47.99952758 -37 46 C-34.03 46 -31.06 46 -28 46 C-27.08854167 48.01822917 -26.17708333 50.03645833 -25.265625 52.0546875 C-23.7081077 54.44864928 -22.69263569 55.07573276 -20 56 C-14.52668961 56.64746175 -9.63234683 56.96020402 -4.8125 54.125 C-2.01479609 50.84493335 -1.76769956 48.44469519 -1.37890625 44.16796875 C-2.40497746 40.58639945 -4.93366199 38.84055853 -8 37 C-11.45134069 35.5681624 -14.98078186 34.49387072 -18.5625 33.4375 C-31.25602041 29.65663801 -31.25602041 29.65663801 -35.78515625 23.62109375 C-37.97449316 18.89747618 -37.61522521 14.08770511 -37 9 C-34.32646319 3.34444136 -29.92691326 -0.57057725 -24.3125 -3.3125 C-15.67432334 -5.10532912 -7.685553 -4.58177198 0 0 Z " fill="#181818" transform="translate(288,114)"/>
<path d="M0 0 C5.17642044 2.49577414 8.65416441 6.10984228 11.0859375 11.33203125 C13.19692371 17.49358501 12.75729174 23.96540748 10.25 29.9375 C8.13053399 34.10206479 5.93999824 36.85882456 1.875 39.25 C-3.79548748 40.7292576 -8.99539075 40.98339322 -14.3125 38.375 C-19.62982163 33.67597158 -22.65229907 30.03333077 -23.2734375 22.828125 C-23.48981544 15.20496366 -23.3790797 9.70899659 -18 4 C-12.82102652 -1.05265705 -6.8520443 -0.93180273 0 0 Z " fill="#292929" transform="translate(83,82)"/>
<path d="M0 0 C2.97 0 5.94 0 9 0 C12.74893965 7.00651343 15.58499261 14.33297864 18.42871094 21.73828125 C19.25684351 23.89280452 20.09285516 26.04415539 20.9296875 28.1953125 C21.45880051 29.56492378 21.98746304 30.93470919 22.515625 32.3046875 C22.76556213 32.94735565 23.01549927 33.5900238 23.27301025 34.25216675 C25 38.76962123 25 38.76962123 25 41 C25.66 41 26.32 41 27 41 C27.10505859 40.33701904 27.21011719 39.67403809 27.31835938 38.9909668 C28.17403828 35.23633849 29.51698733 31.72576477 30.90625 28.14453125 C31.19101196 27.40168381 31.47577393 26.65883636 31.76916504 25.89347839 C32.36915898 24.33037252 32.97104383 22.76799132 33.57470703 21.20629883 C34.50036449 18.81155705 35.42061276 16.41479318 36.33984375 14.01757812 C36.92416805 12.49727622 37.50879302 10.97708983 38.09375 9.45703125 C38.36981079 8.7393306 38.64587158 8.02162994 38.93029785 7.28218079 C40.88171729 2.23656543 40.88171729 2.23656543 42 0 C44.97 0 47.94 0 51 0 C48.22829357 8.89171516 44.64650056 17.44934783 41.125 26.0625 C40.46058114 27.69349152 39.79644086 29.32459656 39.13256836 30.95581055 C37.7696009 34.30378369 36.40516388 37.65115203 35.03955078 40.99804688 C33.06205731 45.84576116 31.09051126 50.69587496 29.12109375 55.546875 C28.81755981 56.29452621 28.51402588 57.04217743 28.20129395 57.81248474 C27.60917314 59.27104952 27.01707063 60.72962172 26.42498779 62.1882019 C25.05625201 65.55938332 23.68638061 68.93010301 22.31640625 72.30078125 C21.64266968 73.95847534 21.64266968 73.95847534 20.95532227 75.6496582 C20.64006592 76.425271 20.32480957 77.20088379 20 78 C17.03 78 14.06 78 11 78 C11.58700238 74.5904383 12.44962808 71.67642711 13.8828125 68.53125 C14.42615234 67.30341797 14.42615234 67.30341797 14.98046875 66.05078125 C15.74480445 64.34733002 16.51567137 62.64679464 17.29296875 60.94921875 C17.65261719 60.13066406 18.01226562 59.31210938 18.3828125 58.46875 C18.71684082 57.73076172 19.05086914 56.99277344 19.39501953 56.23242188 C20.64407976 51.62329889 18.53512004 47.55518249 16.77734375 43.30859375 C16.32464111 42.20765381 15.87193848 41.10671387 15.40551758 39.97241211 C14.92107178 38.80589111 14.43662598 37.63937012 13.9375 36.4375 C12.93968457 34.01058914 11.94229274 31.58350408 10.9453125 29.15625 C10.4493457 27.95226562 9.95337891 26.74828125 9.44238281 25.5078125 C7.37993451 20.4920276 5.33852315 15.46809531 3.3125 10.4375 C2.97404053 9.60597412 2.63558105 8.77444824 2.28686523 7.91772461 C0 2.23108933 0 2.23108933 0 0 Z " fill="#191919" transform="translate(300,125)"/>
<path d="M0 0 C4.2939334 4.10724064 5.64496506 7.08275106 6 13 C3.03 13 0.06 13 -3 13 C-3.66 10.69 -4.32 8.38 -5 6 C-8.04146988 5.1269855 -10.83785259 4.80784416 -14 4.75 C-15.2684375 4.71132812 -15.2684375 4.71132812 -16.5625 4.671875 C-19.53163783 5.07156663 -20.86745643 5.92089146 -23 8 C-23.58333333 11 -23.58333333 11 -23 14 C-20.9515336 16.56185668 -19.08748262 17.53213184 -15.98046875 18.46484375 C-15.20509766 18.70783203 -14.42972656 18.95082031 -13.63085938 19.20117188 C-12.01377536 19.68849456 -10.39658931 20.17547881 -8.77929688 20.66210938 C-3.01460942 22.46923638 1.3406591 24.60659319 5.875 28.6875 C7.70223645 32.44348604 7.71025573 35.91775346 7 40 C5.16798138 44.53136973 2.22967521 47.20556889 -2.0625 49.4375 C-8.87989676 52.06219775 -16.61732209 52.42224875 -23.375 49.4375 C-27.37697855 47.0765001 -30.59662312 43.98782534 -33 40 C-33.375 37.0625 -33.375 37.0625 -33 35 C-29.94998682 34.71226291 -27.0385411 34.55044757 -24 35 C-22.125 37.375 -22.125 37.375 -21 40 C-17.67783762 42.21477492 -16.44966677 42.29667707 -12.5625 42.3125 C-11.14130859 42.33763672 -11.14130859 42.33763672 -9.69140625 42.36328125 C-6.55910506 41.94048878 -5.21672781 41.23201559 -3 39 C-2.18685089 35.39534252 -2.18685089 35.39534252 -2 32 C-5.02737288 30.71473707 -8.07638357 29.64020536 -11.21484375 28.66796875 C-11.98376953 28.42626953 -12.75269531 28.18457031 -13.54492188 27.93554688 C-15.1331067 27.43899603 -16.72428536 26.9519162 -18.31835938 26.47460938 C-23.57023717 24.80016131 -27.03346348 22.8548031 -31 19 C-32.98709286 15.02581427 -32.53100065 10.32124663 -32 6 C-30.30673229 2.20343562 -27.48874013 0.30546258 -24 -1.875 C-16.44010115 -4.66022589 -6.83054652 -4.26909157 0 0 Z " fill="#1D1D1D" transform="translate(388,128)"/>
<path d="M0 0 C3.63 0 7.26 0 11 0 C11 4.29 11 8.58 11 13 C15.29 13 19.58 13 24 13 C24 15.97 24 18.94 24 22 C19.71 22 15.42 22 11 22 C11.33 32.89 11.66 43.78 12 55 C14.43387753 56.21693876 16.41838846 56.31959896 19.125 56.5625 C20.03507812 56.64628906 20.94515625 56.73007813 21.8828125 56.81640625 C22.58148438 56.87699219 23.28015625 56.93757813 24 57 C24 59.97 24 62.94 24 66 C21.62374823 66.10883596 19.25256024 66.18766696 16.875 66.25 C16.20984375 66.28351563 15.5446875 66.31703125 14.859375 66.3515625 C9.70404947 66.45264731 6.93564304 65.26259104 3 62 C0.32993642 59.37378567 0.00488963 58.05396473 -0.34057617 54.24121094 C-0.34010365 52.73884855 -0.32329907 51.23643127 -0.29296875 49.734375 C-0.28872391 48.94097717 -0.28447906 48.14757935 -0.28010559 47.33013916 C-0.2633504 44.8030768 -0.22570506 42.27682017 -0.1875 39.75 C-0.17244903 38.03386571 -0.15876134 36.31771888 -0.14648438 34.6015625 C-0.11345735 30.40073254 -0.06169765 26.20050275 0 22 C-2.31 22 -4.62 22 -7 22 C-7 19.03 -7 16.06 -7 13 C-4.69 13 -2.38 13 0 13 C0 8.71 0 4.42 0 0 Z " fill="#181818" transform="translate(386,25)"/>
<path d="M0 0 C3.63 0 7.26 0 11 0 C11.33 7.92 11.66 15.84 12 24 C13.65 23.34 15.3 22.68 17 22 C17.99 22 18.98 22 20 22 C20 22.66 20 23.32 20 24 C21.98 24 23.96 24 26 24 C26 24.99 26 25.98 26 27 C24.783125 27.37125 23.56625 27.7425 22.3125 28.125 C17.71516819 29.83677248 15.75987424 31.98563747 13 36 C11.98194396 39.05416813 11.86624485 41.17936961 11.875 44.375 C11.87242187 45.31085938 11.86984375 46.24671875 11.8671875 47.2109375 C11.9957684 49.9111363 12.44386083 52.36054584 13 55 C13 55.99 13 56.98 13 58 C14.5354878 59.46090788 14.5354878 59.46090788 16.5 60.6875 C17.1496875 61.12449219 17.799375 61.56148437 18.46875 62.01171875 C19.22671875 62.50091797 19.22671875 62.50091797 20 63 C18.25 64.5625 18.25 64.5625 16 66 C13.75 65.6875 13.75 65.6875 12 65 C11.67 66.98 11.34 68.96 11 71 C7.37 71 3.74 71 0 71 C0 47.57 0 24.14 0 0 Z " fill="#121212" transform="translate(417,20)"/>
<path d="M0 0 C5.27322153 1.82534591 7.79691086 4.60719203 11 9 C12.92570993 14.77712979 12.90187619 20.8099294 10.3125 26.375 C7.80452933 30.77728895 4.83799288 33.38733571 0 35 C-4.7566877 35.55268181 -8.09965486 35.48351869 -12.375 33.1875 C-13.24125 32.465625 -14.1075 31.74375 -15 31 C-15.5775 30.525625 -16.155 30.05125 -16.75 29.5625 C-20.31125047 25.11093692 -20.42674909 20.18830512 -20.31640625 14.72265625 C-19.69669612 9.39008885 -17.35840429 6.22903245 -13.375 2.625 C-8.8910622 -0.44295744 -5.33906361 -0.48700918 0 0 Z " fill="#FAFAFA" transform="translate(448,47)"/>
<path d="M0 0 C4.5747411 3.22311305 7.11623917 6.25507043 8.421875 11.78125 C9.2635335 18.4471853 8.9182433 23.51486373 4.75 28.9375 C0.06036145 33.3983757 -3.76413867 34.23755979 -10.03515625 34.15625 C-14.90679608 33.67510039 -18.18189338 30.53459052 -21.25 26.9375 C-24.20993484 20.73220804 -24.33501528 14.02122764 -22.0625 7.5625 C-16.30850721 -0.77086887 -9.62544086 -3.14677874 0 0 Z " fill="#FBFBFB" transform="translate(687.25,48.0625)"/>
<path d="M0 0 C5.67476113 1.96434039 9.31400331 5.62800662 12 11 C12.50178565 17.44601568 12.96229274 23.58486659 9 29 C5.19697456 32.71175283 2.13547291 35.14009239 -3.25 35.25 C-7.54705758 35.18792373 -10.37165882 34.44702079 -14 32 C-18.2933227 27.24253431 -19.16940167 24.61726842 -19.25 18.25 C-19.27578125 17.03828125 -19.3015625 15.8265625 -19.328125 14.578125 C-18.8527821 9.39462381 -17.29180302 6.16577346 -13.4375 2.6875 C-8.9260602 -0.43580448 -5.39095482 -0.4917425 0 0 Z " fill="#FBFBFB" transform="translate(506,47)"/>
<path d="M0 0 C2.97 0 5.94 0 9 0 C9 4.29 9 8.58 9 13 C13.62 13 18.24 13 23 13 C23 15.64 23 18.28 23 21 C18.38 21 13.76 21 9 21 C9.06883588 25.78770673 9.15678029 30.57453659 9.26245117 35.36157227 C9.29570536 36.99005409 9.32373584 38.61865131 9.34643555 40.24731445 C9.37997357 42.58855361 9.43228585 44.92873486 9.48828125 47.26953125 C9.49467117 47.99775589 9.5010611 48.72598053 9.50764465 49.47627258 C9.61805932 53.46700598 9.61805932 53.46700598 11.390625 56.95117188 C13.5099098 58.33230772 15.17626547 58.50552648 17.6875 58.6875 C18.49574219 58.75324219 19.30398438 58.81898438 20.13671875 58.88671875 C20.75160156 58.92410156 21.36648438 58.96148437 22 59 C22 61.31 22 63.62 22 66 C10.38405058 66.62043647 10.38405058 66.62043647 5.375 64.375 C1.63181254 60.63181254 0.12287924 57.40496334 -0.34057617 52.10595703 C-0.34010716 50.65648872 -0.32351317 49.20695902 -0.29296875 47.7578125 C-0.28872391 46.98944061 -0.28447906 46.22106873 -0.28010559 45.42941284 C-0.26341826 42.99424015 -0.22578641 40.5599192 -0.1875 38.125 C-0.17244023 36.46615785 -0.15875409 34.80730263 -0.14648438 33.1484375 C-0.11354759 29.0986341 -0.06183594 25.04946106 0 21 C-2.31 21 -4.62 21 -7 21 C-7 18.36 -7 15.72 -7 13 C-4.69 13 -2.38 13 0 13 C0 8.71 0 4.42 0 0 Z " fill="#202020" transform="translate(406,112)"/>
<path d="M0 0 C3.63 0 7.26 0 11 0 C11.33 1.65 11.66 3.3 12 5 C12.66 5.33 13.32 5.66 14 6 C14 7.65 14 9.3 14 11 C13.01 11.495 13.01 11.495 12 12 C12.33 12.99 12.66 13.98 13 15 C12.67 15.66 12.34 16.32 12 17 C11.84323225 19.69655446 11.74163685 22.37129977 11.68359375 25.0703125 C11.66281265 25.86654022 11.64203156 26.66276794 11.62062073 27.48312378 C11.55515851 30.03032685 11.49625585 32.57763425 11.4375 35.125 C11.3943116 36.85027127 11.35069721 38.57553193 11.30664062 40.30078125 C11.19948055 44.53374685 11.09820377 48.76681753 11 53 C7.37 53 3.74 53 0 53 C0 35.51 0 18.02 0 0 Z " fill="#121212" transform="translate(597,38)"/>
<path d="M0 0 C16.20025247 -0.81911389 16.20025247 -0.81911389 22 4 C27.35340195 9.91833381 28.1461536 14.95387889 28.09765625 22.82421875 C28.0962413 23.68561966 28.09482635 24.54702057 28.09336853 25.43452454 C28.0877714 28.18555169 28.07521946 30.93649744 28.0625 33.6875 C28.05748463 35.5527332 28.05292179 37.41796767 28.04882812 39.28320312 C28.03780292 43.85550011 28.02054027 48.42773625 28 53 C25.36 53 22.72 53 20 53 C19.98541748 51.97116699 19.97083496 50.94233398 19.95581055 49.88232422 C19.89761343 46.04653053 19.82038297 42.21131078 19.73754883 38.37597656 C19.70439982 36.71949616 19.67633691 35.06290554 19.65356445 33.40625 C19.61983268 31.01775366 19.56751041 28.63025829 19.51171875 26.2421875 C19.50532883 25.50757294 19.4989389 24.77295837 19.49235535 24.01608276 C19.35898146 19.29761256 18.46666654 16.02302917 16 12 C11.55778054 7.97423861 7.6490828 7.88395337 1.8125 7.9375 C0.54019531 7.94652344 -0.73210938 7.95554688 -2.04296875 7.96484375 C-3.01878906 7.97644531 -3.99460937 7.98804688 -5 8 C-5.33 7.34 -5.66 6.68 -6 6 C-5.01 6 -4.02 6 -3 6 C-2.690625 5.38125 -2.38125 4.7625 -2.0625 4.125 C-1.375 2.75 -0.6875 1.375 0 0 Z " fill="#131313" transform="translate(549,125)"/>
<path d="M0 0 C4.46053608 2.57719863 7.00014037 5.0785461 8.671875 10.09375 C8.671875 11.74375 8.671875 13.39375 8.671875 15.09375 C-2.218125 15.09375 -13.108125 15.09375 -24.328125 15.09375 C-23.29185611 8.87613669 -21.99247881 5.43515183 -17.265625 1.28125 C-12.15851093 -1.84891669 -5.54806257 -2.15964852 0 0 Z " fill="#F6F6F6" transform="translate(466.328125,132.90625)"/>
<path d="M0 0 C4.2939334 4.10724064 5.64496506 7.08275106 6 13 C3.03 13 0.06 13 -3 13 C-3.66 10.69 -4.32 8.38 -5 6 C-8.04146988 5.1269855 -10.83785259 4.80784416 -14 4.75 C-15.2684375 4.71132812 -15.2684375 4.71132812 -16.5625 4.671875 C-19.62982739 5.08478446 -20.89267906 5.72656142 -23 8 C-23.69952489 10.95551526 -23.69952489 10.95551526 -23.75 14.1875 C-23.80671875 15.27417969 -23.8634375 16.36085937 -23.921875 17.48046875 C-23.94765625 18.31191406 -23.9734375 19.14335937 -24 20 C-23.34 20.33 -22.68 20.66 -22 21 C-25.66881155 20.29445932 -28.70450534 18.72264494 -32 17 C-32.85975306 6.26263956 -32.85975306 6.26263956 -29.9375 2.5 C-21.71215189 -4.50029627 -9.36874895 -5.8554681 0 0 Z " fill="#151515" transform="translate(388,128)"/>
<path d="M0 0 C3.63467079 1.62400184 4.77408696 2.66113044 7 6 C9.88595946 6.58481121 9.88595946 6.58481121 13.125 6.6875 C14.22070312 6.75324219 15.31640625 6.81898437 16.4453125 6.88671875 C17.70988281 6.94279297 17.70988281 6.94279297 19 7 C19.33 6.34 19.66 5.68 20 5 C20.75 7.25 20.75 7.25 21 10 C19.68870078 11.35500919 18.35308313 12.68671343 17 14 C16.19684346 17.14481791 16.19684346 17.14481791 16 20 C14.845 19.5875 13.69 19.175 12.5 18.75 C9.36584336 17.68698191 6.23724742 16.7968652 3.015625 16.05078125 C2.31373047 15.88674805 1.61183594 15.72271484 0.88867188 15.55371094 C-0.51367442 15.23161953 -1.91863402 14.92065901 -3.32617188 14.62207031 C-7.78035865 13.59434819 -10.73694901 12.21962636 -14 9 C-14.625 6.5 -14.625 6.5 -14 4 C-10.07910522 -0.67977765 -5.70828053 -0.87022788 0 0 Z " fill="#393939" transform="translate(139,81)"/>
<path d="M0 0 C0 4.29 0 8.58 0 13 C-5.6233202 13.09892174 -11.24613333 13.17149342 -16.87011719 13.21972656 C-18.78296735 13.23983452 -20.69575611 13.26712507 -22.60839844 13.30175781 C-25.35887811 13.35031249 -28.10854477 13.37297658 -30.859375 13.390625 C-31.71368103 13.41127014 -32.56798706 13.43191528 -33.44818115 13.45318604 C-39.42152696 13.45544041 -39.42152696 13.45544041 -42.57128906 10.97558594 C-43.04276367 10.32364258 -43.51423828 9.67169922 -44 9 C-42.95581055 7.51831055 -42.95581055 7.51831055 -41 6 C-38.48272281 5.73846714 -36.21896034 5.6502078 -33.70703125 5.70703125 C-32.64798836 5.71339851 -32.64798836 5.71339851 -31.56755066 5.71989441 C-29.31547697 5.73666966 -27.06430258 5.77431757 -24.8125 5.8125 C-23.28451815 5.82754843 -21.75652224 5.84123656 -20.22851562 5.85351562 C-16.48533128 5.88656911 -12.74281804 5.93834168 -9 6 C-8.67 3.69 -8.34 1.38 -8 -1 C-4.23350139 -2.34517808 -3.97399267 -1.98699633 0 0 Z " fill="#121212" transform="translate(484,142)"/>
<path d="M0 0 C3.04457426 0.59007221 6.0849487 1.19958643 9.125 1.8125 C9.9809375 1.97814453 10.836875 2.14378906 11.71875 2.31445312 C16.53144609 3.29550271 20.78382428 4.34810604 25 7 C26.125 9.875 26.125 9.875 26 13 C24.22960551 15.74716387 22.93708156 17.53145922 20 19 C14.96875129 19.55198952 11.05285456 19.49872058 6.4375 17.3125 C4 15 4 15 3 10 C-1.29 10 -5.58 10 -10 10 C-10.33 11.32 -10.66 12.64 -11 14 C-11 12.35 -11 10.7 -11 9 C-4.565 8.505 -4.565 8.505 2 8 C1.67 7.01 1.34 6.02 1 5 C0.34 4.67 -0.32 4.34 -1 4 C-0.67 2.68 -0.34 1.36 0 0 Z " fill="#3A3A3A" transform="translate(122,104)"/>
<path d="M0 0 C0.28875 0.639375 0.5775 1.27875 0.875 1.9375 C1.82823451 4.15206079 1.82823451 4.15206079 4 5 C5.53668865 5.22467831 7.07968054 5.40796805 8.625 5.5625 C9.44226563 5.64628906 10.25953125 5.73007813 11.1015625 5.81640625 C11.72804688 5.87699219 12.35453125 5.93757812 13 6 C13 8.31 13 10.62 13 13 C0.10701444 13.68864611 0.10701444 13.68864611 -3.6875 11.1875 C-6 9 -6 9 -8 6 C-7.625 3.3125 -7.625 3.3125 -7 1 C-2.25 0 -2.25 0 0 0 Z " fill="#111111" transform="translate(415,165)"/>
<path d="M0 0 C0.2475 0.53625 0.495 1.0725 0.75 1.625 C2.96810761 5.83940445 5.44064691 9.79658222 9 13 C8.34 14.98 7.68 16.96 7 19 C8.65 18.67 10.3 18.34 12 18 C12 18.66 12 19.32 12 20 C15.3 20.33 18.6 20.66 22 21 C22 21.33 22 21.66 22 22 C13.83384445 22.69862548 7.79435563 21.7667207 1 17 C-1.30213597 14.85869189 -3.34034712 12.6783829 -5 10 C-5 9.34 -5 8.68 -5 8 C-4.34 8 -3.68 8 -3 8 C-2.87625 7.236875 -2.7525 6.47375 -2.625 5.6875 C-2 3 -2 3 0 0 Z " fill="#171717" transform="translate(442,157)"/>
<path d="M0 0 C1.98 0 3.96 0 6 0 C5.938125 1.010625 5.87625 2.02125 5.8125 3.0625 C6.09360625 8.96573117 8.21752752 13.49705657 12 18 C7.25 19.125 7.25 19.125 5 18 C3.68 19.65 2.36 21.3 1 23 C0.93941406 22.04738281 0.87882812 21.09476563 0.81640625 20.11328125 C0.73261719 18.85902344 0.64882812 17.60476562 0.5625 16.3125 C0.48128906 15.07113281 0.40007812 13.82976562 0.31640625 12.55078125 C0.0740919 9.10645753 0.0740919 9.10645753 -0.5625 6.1875 C-1.04503478 3.7748261 -0.77062239 2.31186717 0 0 Z " fill="#3B3B3B" transform="translate(107,84)"/>
<path d="M0 0 C2.97 0 5.94 0 9 0 C10.32 2.97 11.64 5.94 13 9 C12.175 9.433125 11.35 9.86625 10.5 10.3125 C9.675 10.869375 8.85 11.42625 8 12 C8 12.99 8 13.98 8 15 C1.0880829 9.59067358 1.0880829 9.59067358 0 6 C-0.125 2.75 -0.125 2.75 0 0 Z " fill="#1E1E1E" transform="translate(251,160)"/>
<path d="M0 0 C0.99386719 0.02707031 1.98773438 0.05414063 3.01171875 0.08203125 C4.15060547 0.13423828 4.15060547 0.13423828 5.3125 0.1875 C5.3125 2.8275 5.3125 5.4675 5.3125 8.1875 C1.6825 8.1875 -1.9475 8.1875 -5.6875 8.1875 C-6.0175 6.8675 -6.3475 5.5475 -6.6875 4.1875 C-7.3475 3.8575 -8.0075 3.5275 -8.6875 3.1875 C-6.10291354 -0.17334451 -4.11082043 -0.14508778 0 0 Z " fill="#101010" transform="translate(403.6875,38.8125)"/>
<path d="M0 0 C2.97 0 5.94 0 9 0 C9.99 2.31 10.98 4.62 12 7 C11.38125 7.12375 10.7625 7.2475 10.125 7.375 C7.80879168 7.87197356 7.80879168 7.87197356 6 10 C5.01 10 4.02 10 3 10 C2.01 6.7 1.02 3.4 0 0 Z " fill="#212121" transform="translate(300,125)"/>
<path d="M0 0 C1.09570312 0.00902344 2.19140625 0.01804687 3.3203125 0.02734375 C4.16335938 0.03894531 5.00640625 0.05054687 5.875 0.0625 C5.875 2.0425 5.875 4.0225 5.875 6.0625 C1.585 6.0625 -2.705 6.0625 -7.125 6.0625 C-7.455 4.4125 -7.785 2.7625 -8.125 1.0625 C-5.36047967 -0.31976016 -3.0788637 -0.03275387 0 0 Z " fill="#101010" transform="translate(422.125,125.9375)"/>
<path d="M0 0 C6 6 6 6 6.09765625 8.06640625 C6.08605469 8.89011719 6.07445312 9.71382812 6.0625 10.5625 C6.05347656 11.38878906 6.04445313 12.21507812 6.03515625 13.06640625 C6.02355469 13.70449219 6.01195312 14.34257812 6 15 C5.34 13.68 4.68 12.36 4 11 C1.13275314 11.57344937 0.1385485 11.8614515 -2 14 C-3 13 -3 13 -3.1875 10.6875 C-2.99057765 7.86494628 -2.34109584 6.4455277 -1 4 C-0.63215869 2.6757713 -0.28797019 1.34386088 0 0 Z " fill="#252525" transform="translate(389,153)"/>
<path d="M0 0 C1.8871875 0.061875 1.8871875 0.061875 3.8125 0.125 C3.8125 2.435 3.8125 4.745 3.8125 7.125 C2.35457116 7.17899736 0.89607288 7.21779177 -0.5625 7.25 C-1.37460937 7.27320313 -2.18671875 7.29640625 -3.0234375 7.3203125 C-5.1875 7.125 -5.1875 7.125 -7.1875 5.125 C-7.1875 4.135 -7.1875 3.145 -7.1875 2.125 C-4.09861478 0.06574319 -3.47814073 -0.1140374 0 0 Z " fill="#101010" transform="translate(424.1875,170.875)"/>
<path d="M0 0 C12.03438713 -0.56905158 12.03438713 -0.56905158 16 3 C16.33 3.99 16.66 4.98 17 6 C13.49223216 7.60355101 10.85645121 8.22036864 7 8 C6.34 6.68 5.68 5.36 5 4 C5.66 4 6.32 4 7 4 C7 3.34 7 2.68 7 2 C4.69 1.67 2.38 1.34 0 1 C0 0.67 0 0.34 0 0 Z " fill="#222222" transform="translate(267,110)"/>
<path d="M0 0 C0.99 0.33 1.98 0.66 3 1 C4.06351675 4.38391693 4.21442982 5.5804634 2.5625 8.8125 C2.046875 9.534375 1.53125 10.25625 1 11 C-0.65 10.67 -2.3 10.34 -4 10 C-4.625 8.1875 -4.625 8.1875 -5 6 C-3.42105792 3.63158688 -2.0245738 1.93254772 0 0 Z " fill="#111111" transform="translate(390,163)"/>
<path d="M0 0 C0.66 0.99 1.32 1.98 2 3 C1.34 3.66 0.68 4.32 0 5 C-0.46396693 7.89223503 -0.46396693 7.89223503 -0.625 11.125 C-0.69976562 12.22070312 -0.77453125 13.31640625 -0.8515625 14.4453125 C-0.90054687 15.28835937 -0.94953125 16.13140625 -1 17 C-0.34 17.33 0.32 17.66 1 18 C-2.35595828 17.40072174 -4.37801226 16.15377564 -7 14 C-6.42655063 11.13275314 -6.1385485 10.1385485 -4 8 C-4 7.34 -4 6.68 -4 6 C-2.89473902 3.47368919 -1.9723199 1.9723199 0 0 Z " fill="#0F0F0F" transform="translate(365,131)"/>
<path d="M0 0 C2.64 0 5.28 0 8 0 C8 1.32 8 2.64 8 4 C7.34 4 6.68 4 6 4 C6 4.66 6 5.32 6 6 C7.32 6.66 8.64 7.32 10 8 C7.69 8.33 5.38 8.66 3 9 C0.90250005 6.64031256 0.03094296 5.45383006 -0.1875 2.25 C-0.125625 1.5075 -0.06375 0.765 0 0 Z " fill="#131313" transform="translate(355,163)"/>
<path d="M0 0 C3.75504711 1.45356662 3.75504711 1.45356662 4.8125 3.8125 C5.03322704 6.38764878 4.62444329 8.50222685 4 11 C-0.95696581 9.76075855 -3.11658466 8.21422242 -6 4 C-1.25 4.875 -1.25 4.875 1 6 C0.67 4.02 0.34 2.04 0 0 Z " fill="#1A1A1A" transform="translate(363,142)"/>
<path d="M0 0 C2.97 0 5.94 0 9 0 C8.34 1.98 7.68 3.96 7 6 C5.68 6 4.36 6 3 6 C2.67 5.34 2.34 4.68 2 4 C2.99 4 3.98 4 5 4 C5 3.34 5 2.68 5 2 C3.68 2.33 2.36 2.66 1 3 C0.67 2.01 0.34 1.02 0 0 Z M-1 5 C-0.01 5 0.98 5 2 5 C2 5.66 2 6.32 2 7 C0.02 7.99 -1.96 8.98 -4 10 C-3.67 9.01 -3.34 8.02 -3 7 C-2.34 7 -1.68 7 -1 7 C-1 6.34 -1 5.68 -1 5 Z " fill="#121212" transform="translate(474,162)"/>
<path d="M0 0 C0.66 0.33 1.32 0.66 2 1 C0.35 2.65 -1.3 4.3 -3 6 C-1.02 6 0.96 6 3 6 C-1.625 10 -1.625 10 -5 10 C-7.1875 9 -7.1875 9 -9 8 C-6.37347975 4.40069448 -4.06036357 1.92333011 0 0 Z " fill="#262626" transform="translate(547,126)"/>
<path d="M0 0 C0 1.32 0 2.64 0 4 C1.32 4.33 2.64 4.66 4 5 C3.34 6.32 2.68 7.64 2 9 C-0.31 8.67 -2.62 8.34 -5 8 C-4.74438677 5.6568787 -4.40729228 3.32156597 -4 1 C-2 0 -2 0 0 0 Z " fill="#101010" transform="translate(385,39)"/>
<path d="M0 0 C2.97 0 5.94 0 9 0 C9 1.65 9 3.3 9 5 C7.02 5.99 7.02 5.99 5 7 C2.5 5.1875 2.5 5.1875 0 3 C0 2.01 0 1.02 0 0 Z " fill="#181818" transform="translate(251,160)"/>
<path d="M0 0 C1.65 1.65 3.3 3.3 5 5 C4.649375 5.61875 4.29875 6.2375 3.9375 6.875 C3.4734375 7.926875 3.4734375 7.926875 3 9 C3.33 9.66 3.66 10.32 4 11 C-1.75 10.125 -1.75 10.125 -4 9 C-4 8.34 -4 7.68 -4 7 C-2.68 6.67 -1.36 6.34 0 6 C-0.185625 5.38125 -0.37125 4.7625 -0.5625 4.125 C-1 2 -1 2 0 0 Z " fill="#1E1E1E" transform="translate(415,167)"/>
<path d="M0 0 C0 0.99 0 1.98 0 3 C0.94726954 4.69719127 1.94228261 6.36935236 3 8 C2.01 9.485 2.01 9.485 1 11 C0.67 10.01 0.34 9.02 0 8 C-0.66 8 -1.32 8 -2 8 C-2.33 8.66 -2.66 9.32 -3 10 C-3 9.34 -3 8.68 -3 8 C-4.32 8.33 -5.64 8.66 -7 9 C-2.85714286 2.57142857 -2.85714286 2.57142857 0 0 Z " fill="#1C1C1C" transform="translate(443,129)"/>
<path d="M0 0 C0.66 0.33 1.32 0.66 2 1 C1.34 2.98 0.68 4.96 0 7 C1.65 6.67 3.3 6.34 5 6 C5 6.66 5 7.32 5 8 C8.3 8.33 11.6 8.66 15 9 C15 9.33 15 9.66 15 10 C8.18401613 10.33278764 3.07877934 10.24201565 -3 7 C-2.01 4.69 -1.02 2.38 0 0 Z " fill="#303030" transform="translate(449,169)"/>
<path d="M0 0 C1.65 0 3.3 0 5 0 C5.33 0.99 5.66 1.98 6 3 C0.58461538 7.06153846 0.58461538 7.06153846 -2.375 6.75 C-2.91125 6.5025 -3.4475 6.255 -4 6 C-3.34 6 -2.68 6 -2 6 C-1.34 4.02 -0.68 2.04 0 0 Z " fill="#1D1D1D" transform="translate(171,187)"/>
<path d="M0 0 C-2 2 -4 4 -6 6 C-7.98 2.535 -7.98 2.535 -10 -1 C-5.92224809 -1.9267618 -3.57818963 -2.33958553 0 0 Z " fill="#2F2F2F" transform="translate(112,82)"/>
<path d="M0 0 C2.97 0.99 5.94 1.98 9 3 C9 3.66 9 4.32 9 5 C3.58461538 6.23076923 3.58461538 6.23076923 0.625 5.0625 C0.08875 4.711875 -0.4475 4.36125 -1 4 C-0.67 2.68 -0.34 1.36 0 0 Z " fill="#343434" transform="translate(122,104)"/>
<path d="M0 0 C2.05078125 0.03255208 4.1015625 0.06510417 6.15234375 0.09765625 C5.49234375 1.74765625 4.83234375 3.39765625 4.15234375 5.09765625 C2.17234375 5.09765625 0.19234375 5.09765625 -1.84765625 5.09765625 C-2.41015625 3.16015625 -2.41015625 3.16015625 -2.84765625 1.09765625 C-1.84765625 0.09765625 -1.84765625 0.09765625 0 0 Z " fill="#0F0F0F" transform="translate(268.84765625,110.90234375)"/>
<path d="M0 0 C0.66 0.33 1.32 0.66 2 1 C1.835 1.61875 1.67 2.2375 1.5 2.875 C0.92365356 4.96063386 0.92365356 4.96063386 1 7 C1.66 7 2.32 7 3 7 C3.33 6.34 3.66 5.68 4 5 C4 5.99 4 6.98 4 8 C1 10.1875 1 10.1875 -2 12 C-2.66 11.34 -3.32 10.68 -4 10 C-3.34 9.01 -2.68 8.02 -2 7 C-1.64080679 5.00448218 -1.30503431 3.00451121 -1 1 C-0.67 0.67 -0.34 0.34 0 0 Z " fill="#1F1F1F" transform="translate(612,40)"/>
<path d="M0 0 C1.98 0 3.96 0 6 0 C5.814375 0.61875 5.62875 1.2375 5.4375 1.875 C4.76313824 4.04160178 4.76313824 4.04160178 6 6 C4.02 6 2.04 6 0 6 C0 4.02 0 2.04 0 0 Z " fill="#111111" transform="translate(400,126)"/>
<path d="M0 0 C3 4.38461538 3 4.38461538 3 7 C-0.77545388 5.90931332 -3.47043472 5.0916909 -6 2 C-2.25 0 -2.25 0 0 0 Z " fill="#212121" transform="translate(437,84)"/>
<path d="M0 0 C0.33 0.66 0.66 1.32 1 2 C0.360625 2.61875 -0.27875 3.2375 -0.9375 3.875 C-3.03883584 5.82597612 -3.03883584 5.82597612 -4 8 C-4.66 8 -5.32 8 -6 8 C-6.33 8.66 -6.66 9.32 -7 10 C-7 9.34 -7 8.68 -7 8 C-7.66 8 -8.32 8 -9 8 C-7.82255415 4.46766245 -7.04394359 4.13691925 -3.9375 2.3125 C-3.20402344 1.87550781 -2.47054688 1.43851563 -1.71484375 0.98828125 C-1.14894531 0.66214844 -0.58304687 0.33601563 0 0 Z " fill="#232323" transform="translate(491,39)"/>
<path d="M0 0 C1.65 0.33 3.3 0.66 5 1 C5.33 2.32 5.66 3.64 6 5 C3.69 5.33 1.38 5.66 -1 6 C-0.67 4.02 -0.34 2.04 0 0 Z " fill="#121212" transform="translate(450,170)"/>
<path d="M0 0 C2.31 0 4.62 0 7 0 C6.67 0.99 6.34 1.98 6 3 C5.34 3 4.68 3 4 3 C4 3.66 4 4.32 4 5 C2.02 5.99 2.02 5.99 0 7 C0 4.69 0 2.38 0 0 Z " fill="#101010" transform="translate(386,25)"/>
<path d="M0 0 C0.61875 0.33 1.2375 0.66 1.875 1 C3.91018344 2.14193235 3.91018344 2.14193235 6 2 C6 2.66 6 3.32 6 4 C3.03 5.32 0.06 6.64 -3 8 C-3 4.42424104 -1.91159393 2.94704065 0 0 Z " fill="#1F1F1F" transform="translate(473,162)"/>
<path d="M0 0 C2.375 -0.125 2.375 -0.125 5 0 C7 2 7 2 7 6 C5.35 6 3.7 6 2 6 C1.34 4.02 0.68 2.04 0 0 Z " fill="#1E1E1E" transform="translate(383,135)"/>
<path d="M0 0 C3 2 3 2 3.6875 4.125 C3.790625 4.74375 3.89375 5.3625 4 6 C3.01 6 2.02 6 1 6 C0.34 6.66 -0.32 7.32 -1 8 C-1 7.34 -1 6.68 -1 6 C-1.66 5.67 -2.32 5.34 -3 5 C-2.01 3.35 -1.02 1.7 0 0 Z M-5 6 C-4.34 6 -3.68 6 -3 6 C-3 6.66 -3 7.32 -3 8 C-3.66 8 -4.32 8 -5 8 C-5 7.34 -5 6.68 -5 6 Z " fill="#1E1E1E" transform="translate(479,135)"/>
<path d="M0 0 C0.99 0.66 1.98 1.32 3 2 C3 3.32 3 4.64 3 6 C2.34 6.66 1.68 7.32 1 8 C-0.65 6.02 -2.3 4.04 -4 2 C-2.68 1.34 -1.36 0.68 0 0 Z " fill="#333333" transform="translate(100,73)"/>
<path d="M0 0 C0.99 0.99 1.98 1.98 3 3 C2.01 4.32 1.02 5.64 0 7 C-0.99 6.34 -1.98 5.68 -3 5 C-3 3.68 -3 2.36 -3 1 C-2.01 0.67 -1.02 0.34 0 0 Z " fill="#0E0E0E" transform="translate(385,129)"/>
<path d="M0 0 C2.475 0.99 2.475 0.99 5 2 C3.36587557 3.70840281 2.13093906 4.93453047 0 6 C-0.66 6.66 -1.32 7.32 -2 8 C-2.66 7.34 -3.32 6.68 -4 6 C-2.68 4.02 -1.36 2.04 0 0 Z " fill="#1B1B1B" transform="translate(383,126)"/>
<path d="M0 0 C0.33 1.32 0.66 2.64 1 4 C-1.31 4.33 -3.62 4.66 -6 5 C-6.33 4.01 -6.66 3.02 -7 2 C-4 0 -4 0 0 0 Z " fill="#111111" transform="translate(303,81)"/>
<path d="M0 0 C0.99 0.33 1.98 0.66 3 1 C3.33 1.99 3.66 2.98 4 4 C0.04 5.98 0.04 5.98 -4 8 C-4.66 7.01 -5.32 6.02 -6 5 C-2.535 4.505 -2.535 4.505 1 4 C0.67 2.68 0.34 1.36 0 0 Z " fill="#212121" transform="translate(569,129)"/>
<path d="M0 0 C1.67542976 0.28604898 3.34385343 0.61781233 5 1 C5.33 2.98 5.66 4.96 6 7 C5.01 7 4.02 7 3 7 C0.8125 4 0.8125 4 -1 1 C-0.67 0.67 -0.34 0.34 0 0 Z " fill="#202020" transform="translate(513,49)"/>
<path d="M0 0 C2.31 0 4.62 0 7 0 C4 2 4 2 2 2 C2.33 2.99 2.66 3.98 3 5 C2.34 5 1.68 5 1 5 C0.67 6.32 0.34 7.64 0 9 C0 6.03 0 3.06 0 0 Z " fill="#434343" transform="translate(379,38)"/>
<path d="M0 0 C0.93065133 2.60582371 1.14917407 3.64198224 0.0625 6.25 C-0.4634375 7.11625 -0.4634375 7.11625 -1 8 C-1.66 7.67 -2.32 7.34 -3 7 C-2.625 4.0625 -2.625 4.0625 -2 1 C-1.34 0.67 -0.68 0.34 0 0 Z " fill="#0F0F0F" transform="translate(388,153)"/>
<path d="M0 0 C1.65 0 3.3 0 5 0 C5 0.66 5 1.32 5 2 C5.99 2.33 6.98 2.66 8 3 C3.375 5.125 3.375 5.125 0 4 C0 2.68 0 1.36 0 0 Z " fill="#0E0E0E" transform="translate(562,130)"/>
<path d="M0 0 C2 1.3125 2 1.3125 4 3 C4 3.99 4 4.98 4 6 C3.01 6.33 2.02 6.66 1 7 C-0.0625 5.1875 -0.0625 5.1875 -1 3 C-0.67 2.01 -0.34 1.02 0 0 Z " fill="#1E1E1E" transform="translate(389,153)"/>
<path d="M0 0 C1.65 0.99 3.3 1.98 5 3 C4.01 4.32 3.02 5.64 2 7 C1.01 6.67 0.02 6.34 -1 6 C-0.67 4.02 -0.34 2.04 0 0 Z " fill="#0F0F0F" transform="translate(368,146)"/>
<path d="M0 0 C0.66 0.33 1.32 0.66 2 1 C-0.80804268 3.96404505 -3.18315774 6.44499019 -7 8 C-5.50902342 4.2047869 -3.24299151 2.38957269 0 0 Z " fill="#EDEDED" transform="translate(510,133)"/>
<path d="M0 0 C0.66 0.33 1.32 0.66 2 1 C2 2.32 2 3.64 2 5 C2.33 5.99 2.66 6.98 3 8 C2.01 8.33 1.02 8.66 0 9 C-1.125 6.75 -1.125 6.75 -2 4 C-1.125 1.6875 -1.125 1.6875 0 0 Z " fill="#2E2E2E" transform="translate(156,94)"/>
<path d="M0 0 C0.1875 2.375 0.1875 2.375 0 5 C-0.99 5.66 -1.98 6.32 -3 7 C-3.33 5.02 -3.66 3.04 -4 1 C-2 0 -2 0 0 0 Z " fill="#1F1F1F" transform="translate(55,74)"/>
<path d="M0 0 C2 1.375 2 1.375 4 3 C4 3.66 4 4.32 4 5 C1.36 4.34 -1.28 3.68 -4 3 C-2.68 2.01 -1.36 1.02 0 0 Z " fill="#232323" transform="translate(278,146)"/>
<path d="M0 0 C0.33 0.66 0.66 1.32 1 2 C0.34 1.67 -0.32 1.34 -1 1 C-0.67 0.67 -0.34 0.34 0 0 Z M-2 2 C-1.67 2.66 -1.34 3.32 -1 4 C-0.34 4.33 0.32 4.66 1 5 C-2 7 -2 7 -4.1875 6.625 C-4.785625 6.41875 -5.38375 6.2125 -6 6 C-5.01 5.67 -4.02 5.34 -3 5 C-2.67 4.01 -2.34 3.02 -2 2 Z " fill="#0E0E0E" transform="translate(549,126)"/>
<path d="M0 0 C0.66 0.33 1.32 0.66 2 1 C0.02 1.99 0.02 1.99 -2 3 C-1.34 2.01 -0.68 1.02 0 0 Z M-4 4 C-3.34 4.66 -2.68 5.32 -2 6 C-3.375 7.5 -3.375 7.5 -5 9 C-5.66 9 -6.32 9 -7 9 C-5.125 5.125 -5.125 5.125 -4 4 Z " fill="#EFEFEF" transform="translate(270,36)"/>
<path d="M0 0 C3.12826838 0.29100171 4.37427733 1.19380207 6.6875 3.25 C0.6328125 3.4453125 0.6328125 3.4453125 -1.3125 3.25 C-1.9725 2.59 -2.6325 1.93 -3.3125 1.25 C-2.3125 0.25 -2.3125 0.25 0 0 Z " fill="#4E4E4E" transform="translate(45.3125,195.75)"/>
<path d="M0 0 C3.68754757 0.49831724 5.60490662 1.10067643 8 4 C6.68 4.33 5.36 4.66 4 5 C2.68 3.35 1.36 1.7 0 0 Z " fill="#262626" transform="translate(357,146)"/>
<path d="M0 0 C0 1.32 0 2.64 0 4 C-0.66 4 -1.32 4 -2 4 C-2.33 4.99 -2.66 5.98 -3 7 C-3.66 6.34 -4.32 5.68 -5 5 C-5 4.01 -5 3.02 -5 2 C-2 0 -2 0 0 0 Z " fill="#0F0F0F" transform="translate(286,144)"/>
<path d="M0 0 C2 2 2 2 2 5 C-1 7 -1 7 -3 8 C-3.66 7.34 -4.32 6.68 -5 6 C-4.360625 5.566875 -3.72125 5.13375 -3.0625 4.6875 C-0.73253997 3.08760823 -0.73253997 3.08760823 0 0 Z " fill="#232323" transform="translate(360,74)"/>
<path d="M0 0 C0.66 0.33 1.32 0.66 2 1 C-0.38957269 4.24299151 -2.2047869 6.50902342 -6 8 C-4.55746343 4.63408134 -2.66735273 2.48952921 0 0 Z " fill="#E8E8E8" transform="translate(672,48)"/>
<path d="M0 0 C1.98 0 3.96 0 6 0 C5.67 1.65 5.34 3.3 5 5 C2.5 3.625 2.5 3.625 0 2 C0 1.34 0 0.68 0 0 Z " fill="#181818" transform="translate(359,171)"/>
<path d="M0 0 C1.0625 1.875 1.0625 1.875 2 4 C1.67 4.66 1.34 5.32 1 6 C-0.32 6 -1.64 6 -3 6 C-1.125 1.125 -1.125 1.125 0 0 Z " fill="#2B2B2B" transform="translate(442,157)"/>
<path d="M0 0 C1.485 0.99 1.485 0.99 3 2 C3.1875 4.625 3.1875 4.625 3 7 C2.01 7 1.02 7 0 7 C0.33 5.68 0.66 4.36 1 3 C0.34 2.67 -0.32 2.34 -1 2 C-0.67 1.34 -0.34 0.68 0 0 Z " fill="#0E0E0E" transform="translate(446,128)"/>
<path d="M0 0 C0.66 0 1.32 0 2 0 C2 1.32 2 2.64 2 4 C0.02 4.66 -1.96 5.32 -4 6 C-2.7260411 3.96166576 -1.38938077 1.96147874 0 0 Z " fill="#242424" transform="translate(257,34)"/>
</svg>
